<svg xmlns="http://www.w3.org/2000/svg" width="175.137" height="175.137" viewBox="0 0 175.137 175.137">
  <g id="Group_441" data-name="Group 441" transform="translate(-554 -452)">
    <g id="Path_393" data-name="Path 393" transform="translate(554 452)" fill="none">
      <path d="M87.568,0A87.568,87.568,0,1,1,0,87.568,87.568,87.568,0,0,1,87.568,0Z" stroke="none"/>
      <path d="M 87.568359375 9.999984741210938 C 44.79701232910156 9.999984741210938 9.999984741210938 44.79701232910156 9.999984741210938 87.568359375 C 9.999984741210938 130.3397064208984 44.79701232910156 165.1367034912109 87.568359375 165.1367034912109 C 130.3397064208984 165.1367034912109 165.1367034912109 130.3397064208984 165.1367034912109 87.568359375 C 165.1367034912109 44.79701232910156 130.3397064208984 9.999984741210938 87.568359375 9.999984741210938 M 87.568359375 -1.52587890625e-05 C 135.9310150146484 -1.52587890625e-05 175.1367034912109 39.20567321777344 175.1367034912109 87.568359375 C 175.1367034912109 135.9310150146484 135.9310150146484 175.1367034912109 87.568359375 175.1367034912109 C 39.20567321777344 175.1367034912109 -1.52587890625e-05 135.9310150146484 -1.52587890625e-05 87.568359375 C -1.52587890625e-05 39.20567321777344 39.20567321777344 -1.52587890625e-05 87.568359375 -1.52587890625e-05 Z" stroke="none" fill="#a63333"/>
    </g>
    <ellipse id="Ellipse_189" data-name="Ellipse 189" cx="16.068" cy="15.264" rx="16.068" ry="15.264" transform="translate(594.169 503.416)" fill="#a63333"/>
    <path id="Path_395" data-name="Path 395" d="M0,0H11.247V53.222Z" transform="translate(623.58 490.786) rotate(76)" fill="#a63333"/>
    <ellipse id="Ellipse_190" data-name="Ellipse 190" cx="16.067" cy="15.264" rx="16.067" ry="15.264" transform="translate(656.833 503.416)" fill="#a63333"/>
    <path id="Path_394" data-name="Path 394" d="M33,0C51.225,0,66,15,66,15S49.5,9.086,33,9.086,0,15,0,15,14.775,0,33,0Z" transform="translate(609 572)" fill="#a63333"/>
    <path id="Path_396" data-name="Path 396" d="M0,53.087H11.219V0Z" transform="matrix(-0.292, 0.956, -0.956, -0.292, 710.716, 506.203)" fill="#a63333"/>
  </g>
</svg>
