<svg id="Group_452" data-name="Group 452" xmlns="http://www.w3.org/2000/svg" width="100" height="100" viewBox="0 0 100 100">
  <g id="Path_397" data-name="Path 397" fill="none">
    <path d="M50,0A50,50,0,1,1,0,50,50,50,0,0,1,50,0Z" stroke="none"/>
    <path d="M 50.00004959106445 4.999992370605469 C 43.92288589477539 4.999992370605469 38.0301399230957 6.189102172851563 32.48554229736328 8.534271240234375 C 27.12755584716797 10.80050659179688 22.31455993652344 14.04585266113281 18.18021392822266 18.18019866943359 C 14.04586791992188 22.31452178955078 10.80050659179688 27.12752532958984 8.534271240234375 32.48550415039063 C 6.189102172851563 38.03010559082031 4.999992370605469 43.92283248901367 4.999992370605469 49.99999618530273 C 4.999992370605469 56.0771598815918 6.189102172851563 61.96988677978516 8.534271240234375 67.51448822021484 C 10.80050659179688 72.87246704101563 14.04586791992188 77.68547058105469 18.18021392822266 81.81979370117188 C 22.31455993652344 85.95413970947266 27.12755584716797 89.19948577880859 32.48554229736328 91.46572113037109 C 38.0301399230957 93.81089019775391 43.92288589477539 95 50.00004959106445 95 C 56.07721328735352 95 61.9699592590332 93.81089019775391 67.51455688476563 91.46572113037109 C 72.87254333496094 89.19948577880859 77.68553924560547 85.95413970947266 81.81988525390625 81.81979370117188 C 85.95423126220703 77.68547058105469 89.19959259033203 72.87246704101563 91.46583557128906 67.51448822021484 C 93.81099700927734 61.96988677978516 95.00010681152344 56.0771598815918 95.00010681152344 49.99999618530273 C 95.00010681152344 43.92283248901367 93.81099700927734 38.03010559082031 91.46583557128906 32.48550415039063 C 89.19959259033203 27.12752532958984 85.95423126220703 22.31452178955078 81.81988525390625 18.18019866943359 C 77.68553924560547 14.04585266113281 72.87254333496094 10.80050659179688 67.51455688476563 8.534271240234375 C 61.9699592590332 6.189102172851563 56.07721328735352 4.999992370605469 50.00004959106445 4.999992370605469 M 50.00004959106445 -7.62939453125e-06 C 77.61430358886719 -7.62939453125e-06 100.0001068115234 22.38575744628906 100.0001068115234 49.99999618530273 C 100.0001068115234 77.61423492431641 77.61430358886719 100 50.00004959106445 100 C 22.38579559326172 100 -7.62939453125e-06 77.61423492431641 -7.62939453125e-06 49.99999618530273 C -7.62939453125e-06 22.38575744628906 22.38579559326172 -7.62939453125e-06 50.00004959106445 -7.62939453125e-06 Z" stroke="none" fill="#a63333"/>
  </g>
  <g id="Ellipse_191" data-name="Ellipse 191" transform="translate(35.716 23.968)" fill="none" stroke="#a63333" stroke-width="5">
    <circle cx="14.122" cy="14.122" r="14.122" stroke="none"/>
    <circle cx="14.122" cy="14.122" r="11.622" fill="none"/>
  </g>
  <g id="Path_398" data-name="Path 398" transform="translate(26.89 52.859)" fill="none">
    <path d="M23.1,0C47.11.213,46.2,23.566,46.2,23.566H0S-.906-.212,23.1,0Z" stroke="none"/>
    <path d="M 22.78336143493652 4.999153137207031 C 19.72794914245605 4.999153137207031 17.03128242492676 5.461030960083008 14.76827239990234 6.371953964233398 C 12.91622924804688 7.117443084716797 11.30279541015625 8.189342498779297 9.972759246826172 9.557864189147949 C 7.35455322265625 12.25185489654541 6.112289428710938 15.75694465637207 5.523979187011719 18.56587600708008 L 23.10213851928711 18.56587600708008 L 40.66225814819336 18.56587600708008 C 40.07353591918945 15.85651588439941 38.85282135009766 12.49481582641602 36.32608413696289 9.844575881958008 C 34.96489334106445 8.416842460632324 33.30393981933594 7.292230606079102 31.38935089111328 6.501941680908203 C 29.0436840057373 5.533731460571289 26.2405834197998 5.028532028198242 23.0579948425293 5.000364303588867 C 22.96583938598633 4.999553680419922 22.87466049194336 4.999153137207031 22.78336143493652 4.999153137207031 M 22.78335762023926 -0.000850677490234375 C 22.88933944702148 -0.000850677490234375 22.99516868591309 -0.0003814697265625 23.10213851928711 0.0005645751953125 C 47.11027145385742 0.2129764556884766 46.202392578125 23.56587600708008 46.202392578125 23.56587600708008 C 46.202392578125 23.56587600708008 35.86006164550781 23.56587600708008 23.10213851928711 23.56587600708008 C 10.34423828125 23.56587600708008 0.0019073486328125 23.56587600708008 0.0019073486328125 23.56587600708008 C 0.0019073486328125 23.56587600708008 -0.8972663879394531 -0.000850677490234375 22.78335762023926 -0.000850677490234375 Z" stroke="none" fill="#a63333"/>
  </g>
</svg>
