<svg id="Group_319" data-name="Group 319" xmlns="http://www.w3.org/2000/svg" width="56" height="56" viewBox="0 0 56 56">
  <g id="Path_104" data-name="Path 104" fill="#a63333">
    <path d="M 28.00002670288086 50.49999618530273 C 15.59346675872803 50.49999618530273 5.5 40.40654373168945 5.5 27.99999618530273 C 5.5 15.59344959259033 15.59346675872803 5.499996185302734 28.00002670288086 5.499996185302734 C 40.40658569335938 5.499996185302734 50.50005340576172 15.59344959259033 50.50005340576172 27.99999618530273 C 50.50005340576172 40.40654373168945 40.40658569335938 50.49999618530273 28.00002670288086 50.49999618530273 Z" stroke="none"/>
    <path d="M 28.00002670288086 10.99999618530273 C 18.62617111206055 10.99999618530273 10.9999885559082 18.62615966796875 10.9999885559082 27.99999618530273 C 10.9999885559082 37.37383270263672 18.62617111206055 44.99999618530273 28.00002670288086 44.99999618530273 C 37.37386322021484 44.99999618530273 45.00004577636719 37.37383270263672 45.00004577636719 27.99999618530273 C 45.00004577636719 18.62615966796875 37.37386322021484 10.99999618530273 28.00002670288086 10.99999618530273 M 28.00002670288086 -3.814697265625e-06 C 43.46400833129883 -3.814697265625e-06 56.00004577636719 12.53603363037109 56.00004577636719 27.99999618530273 C 56.00004577636719 43.46395874023438 43.46400833129883 55.99999618530273 28.00002670288086 55.99999618530273 C 12.53604507446289 55.99999618530273 -1.1444091796875e-05 43.46395874023438 -1.1444091796875e-05 27.99999618530273 C -1.1444091796875e-05 12.53603363037109 12.53604507446289 -3.814697265625e-06 28.00002670288086 -3.814697265625e-06 Z" stroke="none" fill="#a63333"/>
  </g>
  <circle id="Ellipse_142" data-name="Ellipse 142" cx="8" cy="8" r="8" transform="translate(19.91 13.361)" fill="#dedede"/>
  <path id="Path_110" data-name="Path 110" d="M13.086,0c13.6.12,13.086,13.349,13.086,13.349H0S-.514-.12,13.086,0Z" transform="translate(14.91 29.496)" fill="#dedede"/>
</svg>
