<svg xmlns="http://www.w3.org/2000/svg" width="100" height="100" viewBox="0 0 175 175">
    <g id="Path_104" data-name="Path 104" fill="none">
        <path d="M87.5,0A87.5,87.5,0,1,1,0,87.5,87.5,87.5,0,0,1,87.5,0Z" stroke="none"/>
        <path d="M 87.50009155273438 11 C 45.31779479980469 11 10.99998474121094 45.31776428222656 10.99998474121094 87.5 C 10.99998474121094 129.6822357177734 45.31779479980469 164 87.50009155273438 164 C 129.6823883056641 164 164.0001983642578 129.6822357177734 164.0001983642578 87.5 C 164.0001983642578 45.31776428222656 129.6823883056641 11 87.50009155273438 11 M 87.50009155273438 0 C 135.8250579833984 0 175.0001983642578 39.17509460449219 175.0001983642578 87.5 C 175.0001983642578 135.8249053955078 135.8250579833984 175 87.50009155273438 175 C 39.17512512207031 175 -1.52587890625e-05 135.8249053955078 -1.52587890625e-05 87.5 C -1.52587890625e-05 39.17509460449219 39.17512512207031 0 87.50009155273438 0 Z" stroke="none" fill="#6A00FF"/>
    </g>
</svg>
