<svg xmlns="http://www.w3.org/2000/svg" width="56" height="56" viewBox="0 0 56 56">
    <g id="Mini_Skin" data-name="Mini Skin" fill="none">
        <path d="M28,0A28,28,0,1,1,0,28,28,28,0,0,1,28,0Z" stroke="none"/>
        <path d="M 28 10 C 18.07476425170898 10 10 18.07476425170898 10 28 C 10 37.92523574829102 18.07476425170898 46 28 46 C 37.92523574829102 46 46 37.92523574829102 46 28 C 46 18.07476425170898 37.92523574829102 10 28 10 M 28 0 C 43.46398162841797 0 56 12.53601837158203 56 28 C 56 43.46398162841797 43.46398162841797 56 28 56 C 12.53601837158203 56 0 43.46398162841797 0 28 C 0 12.53601837158203 12.53601837158203 0 28 0 Z" stroke="none" fill="#A4C400"/>
    </g>
</svg>
